# xmcd CD database file
#
# Track frame offsets:
#	182
#	24760
#	49262
#	93205
#	117785
#	153980
#	164152
#
# Disc length: 2577 seconds
#
# Revision: 0
# Processed by: cddbd v1.5.2PL0 Copyright (c) Steve Scherf et al.
# Submitted via: CDex 1.51
#
DISCID=4c0a0f07
DTITLE=Gordon Beck - Dreams
DYEAR=1989
DGENRE=Jazz
TTITLE0=Times Gone But Not Forgotten
TTITLE1=Games
TTITLE2=Dreams - A. Day - B. Sweet
TTITLE3=My Father
TTITLE4=A Place That I Know
TTITLE5=Exquisite Facilities
TTITLE6=Times Yet To Come
EXTD=YEAR: 1989
EXTT0=
EXTT1=
EXTT2=
EXTT3=
EXTT4=
EXTT5=
EXTT6=
PLAYORDER=
